<svg xmlns="http://www.w3.org/2000/svg" xmlns:xlink="http://www.w3.org/1999/xlink" width="1080" zoomAndPan="magnify" viewBox="0 0 810 809.999993" height="1080" preserveAspectRatio="xMidYMid meet" version="1.0"><defs><g/></defs><path fill="#ffffff" d="M 662.746094 610.890625 C 662.515625 610.890625 662.292969 610.890625 662.070312 610.882812 C 577.796875 609.605469 510.871094 506.808594 494.847656 480.011719 L 315.8125 480.011719 C 299.789062 506.808594 232.863281 609.605469 148.589844 610.882812 C 135.105469 611.351562 111.257812 605.375 101.96875 564.851562 C 81.3125 474.714844 143.714844 256.976562 197.359375 232.019531 C 251.097656 207.011719 288.773438 224.175781 300.273438 230.910156 L 510.386719 230.910156 C 521.882812 224.175781 559.570312 207.03125 613.300781 232.019531 C 666.945312 256.976562 729.347656 474.714844 708.691406 564.851562 C 699.554688 604.703125 676.28125 610.890625 662.746094 610.890625 Z M 308.964844 456.234375 L 501.695312 456.234375 C 502.757812 456.234375 503.800781 456.375 504.828125 456.65625 C 505.851562 456.933594 506.820312 457.34375 507.734375 457.882812 C 508.648438 458.421875 509.476562 459.074219 510.21875 459.832031 C 510.960938 460.59375 511.585938 461.441406 512.101562 462.367188 C 512.785156 463.605469 581.367188 585.878906 662.433594 587.105469 C 666.5625 587.261719 679.140625 587.355469 685.511719 559.535156 C 704.574219 476.359375 643.28125 272.195312 603.269531 253.578125 C 552.949219 230.1875 522.117188 251.488281 520.828125 252.417969 C 518.738281 253.90625 516.40625 254.664062 513.835938 254.6875 L 296.824219 254.6875 C 295.550781 254.6875 294.308594 254.488281 293.097656 254.089844 C 291.886719 253.691406 290.769531 253.113281 289.746094 252.351562 C 288.542969 251.503906 257.695312 230.1875 207.390625 253.578125 C 167.378906 272.195312 106.085938 476.359375 125.148438 559.535156 C 131.519531 587.355469 144.101562 587.207031 148.226562 587.105469 C 229.292969 585.878906 297.875 463.605469 298.558594 462.367188 C 299.074219 461.441406 299.699219 460.59375 300.441406 459.832031 C 301.183594 459.074219 302.011719 458.421875 302.925781 457.882812 C 303.839844 457.34375 304.808594 456.933594 305.832031 456.65625 C 306.859375 456.375 307.902344 456.234375 308.964844 456.234375 Z M 308.964844 456.234375 " fill-opacity="1" fill-rule="nonzero"/><path fill="#ffffff" d="M 257.496094 433.785156 C 256.476562 433.785156 255.457031 433.734375 254.441406 433.632812 C 253.425781 433.53125 252.417969 433.378906 251.417969 433.179688 C 250.417969 432.980469 249.429688 432.734375 248.453125 432.4375 C 247.476562 432.140625 246.515625 431.792969 245.574219 431.402344 C 244.628906 431.011719 243.710938 430.578125 242.808594 430.09375 C 241.910156 429.613281 241.035156 429.089844 240.1875 428.523438 C 239.339844 427.953125 238.519531 427.347656 237.730469 426.699219 C 236.941406 426.050781 236.1875 425.367188 235.464844 424.644531 C 234.742188 423.925781 234.058594 423.167969 233.410156 422.378906 C 232.761719 421.59375 232.15625 420.773438 231.589844 419.925781 C 231.019531 419.078125 230.496094 418.203125 230.015625 417.300781 C 229.535156 416.402344 229.097656 415.480469 228.707031 414.539062 C 228.316406 413.597656 227.972656 412.636719 227.675781 411.660156 C 227.378906 410.683594 227.128906 409.695312 226.929688 408.695312 C 226.730469 407.695312 226.578125 406.683594 226.476562 405.667969 C 226.375 404.65625 226.324219 403.636719 226.324219 402.617188 L 226.324219 395.222656 L 218.929688 395.222656 C 217.910156 395.222656 216.890625 395.171875 215.875 395.074219 C 214.859375 394.972656 213.851562 394.824219 212.847656 394.625 C 211.847656 394.425781 210.859375 394.175781 209.882812 393.882812 C 208.90625 393.585938 207.945312 393.242188 207 392.851562 C 206.058594 392.460938 205.136719 392.023438 204.234375 391.542969 C 203.335938 391.0625 202.460938 390.535156 201.613281 389.96875 C 200.761719 389.402344 199.945312 388.796875 199.15625 388.148438 C 198.367188 387.5 197.609375 386.816406 196.886719 386.09375 C 196.167969 385.371094 195.480469 384.617188 194.835938 383.824219 C 194.1875 383.035156 193.578125 382.21875 193.011719 381.367188 C 192.445312 380.519531 191.921875 379.644531 191.4375 378.746094 C 190.957031 377.84375 190.523438 376.921875 190.132812 375.980469 C 189.742188 375.035156 189.398438 374.078125 189.101562 373.097656 C 188.804688 372.121094 188.554688 371.132812 188.355469 370.132812 C 188.15625 369.128906 188.007812 368.121094 187.910156 367.105469 C 187.808594 366.089844 187.757812 365.070312 187.757812 364.050781 C 187.757812 363.03125 187.808594 362.011719 187.910156 360.996094 C 188.007812 359.980469 188.15625 358.96875 188.355469 357.96875 C 188.554688 356.96875 188.804688 355.976562 189.101562 355 C 189.398438 354.023438 189.742188 353.0625 190.132812 352.121094 C 190.523438 351.175781 190.957031 350.253906 191.4375 349.355469 C 191.921875 348.453125 192.445312 347.582031 193.011719 346.730469 C 193.578125 345.882812 194.1875 345.0625 194.835938 344.273438 C 195.480469 343.484375 196.167969 342.730469 196.886719 342.007812 C 197.609375 341.285156 198.367188 340.601562 199.15625 339.953125 C 199.945312 339.304688 200.761719 338.699219 201.613281 338.132812 C 202.460938 337.5625 203.335938 337.039062 204.234375 336.558594 C 205.136719 336.078125 206.058594 335.640625 207 335.25 C 207.945312 334.859375 208.90625 334.515625 209.882812 334.21875 C 210.859375 333.921875 211.847656 333.675781 212.847656 333.476562 C 213.851562 333.277344 214.859375 333.128906 215.875 333.027344 C 216.890625 332.925781 217.910156 332.878906 218.929688 332.878906 L 226.324219 332.878906 L 226.324219 325.484375 C 226.324219 324.464844 226.375 323.445312 226.472656 322.429688 C 226.574219 321.414062 226.722656 320.40625 226.921875 319.402344 C 227.121094 318.402344 227.371094 317.414062 227.664062 316.4375 C 227.960938 315.460938 228.304688 314.5 228.695312 313.554688 C 229.085938 312.613281 229.523438 311.691406 230.003906 310.789062 C 230.484375 309.890625 231.007812 309.015625 231.578125 308.167969 C 232.144531 307.316406 232.75 306.5 233.398438 305.710938 C 234.046875 304.921875 234.730469 304.164062 235.453125 303.441406 C 236.175781 302.722656 236.929688 302.035156 237.71875 301.390625 C 238.507812 300.742188 239.328125 300.132812 240.175781 299.566406 C 241.027344 299 241.902344 298.476562 242.800781 297.992188 C 243.703125 297.511719 244.625 297.078125 245.566406 296.6875 C 246.507812 296.296875 247.46875 295.953125 248.445312 295.65625 C 249.421875 295.359375 250.414062 295.113281 251.414062 294.914062 C 252.414062 294.714844 253.421875 294.5625 254.441406 294.464844 C 255.457031 294.363281 256.472656 294.3125 257.496094 294.3125 C 258.515625 294.3125 259.535156 294.363281 260.550781 294.464844 C 261.566406 294.5625 262.574219 294.714844 263.578125 294.914062 C 264.578125 295.113281 265.566406 295.359375 266.542969 295.65625 C 267.519531 295.953125 268.480469 296.296875 269.421875 296.6875 C 270.367188 297.078125 271.289062 297.511719 272.1875 297.992188 C 273.089844 298.476562 273.964844 299 274.8125 299.566406 C 275.660156 300.132812 276.480469 300.742188 277.269531 301.390625 C 278.058594 302.035156 278.816406 302.722656 279.535156 303.441406 C 280.257812 304.164062 280.941406 304.921875 281.589844 305.710938 C 282.238281 306.5 282.847656 307.316406 283.414062 308.167969 C 283.980469 309.015625 284.503906 309.890625 284.984375 310.789062 C 285.46875 311.691406 285.902344 312.613281 286.292969 313.554688 C 286.683594 314.5 287.027344 315.460938 287.324219 316.4375 C 287.621094 317.414062 287.867188 318.402344 288.066406 319.402344 C 288.265625 320.40625 288.417969 321.414062 288.515625 322.429688 C 288.617188 323.445312 288.667969 324.464844 288.667969 325.484375 L 288.667969 332.878906 L 296.058594 332.878906 C 297.078125 332.878906 298.097656 332.925781 299.113281 333.027344 C 300.128906 333.128906 301.140625 333.277344 302.140625 333.476562 C 303.140625 333.675781 304.132812 333.921875 305.109375 334.21875 C 306.085938 334.515625 307.046875 334.859375 307.988281 335.25 C 308.929688 335.640625 309.851562 336.078125 310.753906 336.558594 C 311.652344 337.039062 312.527344 337.5625 313.378906 338.128906 C 314.226562 338.699219 315.046875 339.304688 315.835938 339.953125 C 316.625 340.601562 317.378906 341.285156 318.101562 342.007812 C 318.824219 342.730469 319.507812 343.484375 320.15625 344.273438 C 320.804688 345.0625 321.410156 345.882812 321.976562 346.730469 C 322.546875 347.582031 323.070312 348.453125 323.550781 349.355469 C 324.03125 350.253906 324.46875 351.175781 324.859375 352.121094 C 325.25 353.0625 325.59375 354.023438 325.890625 355 C 326.1875 355.976562 326.433594 356.96875 326.632812 357.96875 C 326.832031 358.96875 326.980469 359.980469 327.082031 360.996094 C 327.183594 362.011719 327.230469 363.027344 327.230469 364.050781 C 327.230469 365.070312 327.183594 366.089844 327.082031 367.105469 C 326.980469 368.121094 326.832031 369.128906 326.632812 370.132812 C 326.433594 371.132812 326.1875 372.121094 325.890625 373.097656 C 325.59375 374.074219 325.25 375.035156 324.859375 375.980469 C 324.46875 376.921875 324.03125 377.84375 323.550781 378.746094 C 323.070312 379.644531 322.546875 380.519531 321.976562 381.367188 C 321.410156 382.21875 320.804688 383.035156 320.15625 383.824219 C 319.507812 384.617188 318.824219 385.371094 318.101562 386.09375 C 317.378906 386.816406 316.625 387.5 315.835938 388.148438 C 315.046875 388.792969 314.226562 389.402344 313.378906 389.96875 C 312.527344 390.535156 311.652344 391.0625 310.753906 391.542969 C 309.851562 392.023438 308.929688 392.460938 307.988281 392.851562 C 307.046875 393.242188 306.085938 393.585938 305.109375 393.878906 C 304.132812 394.175781 303.140625 394.425781 302.140625 394.625 C 301.140625 394.824219 300.128906 394.972656 299.113281 395.074219 C 298.097656 395.171875 297.078125 395.222656 296.058594 395.222656 L 288.667969 395.222656 L 288.667969 402.617188 C 288.664062 403.636719 288.613281 404.652344 288.511719 405.667969 C 288.410156 406.683594 288.261719 407.691406 288.0625 408.695312 C 287.863281 409.695312 287.613281 410.683594 287.316406 411.660156 C 287.019531 412.636719 286.675781 413.59375 286.285156 414.539062 C 285.894531 415.480469 285.457031 416.402344 284.976562 417.300781 C 284.492188 418.203125 283.96875 419.074219 283.402344 419.925781 C 282.835938 420.773438 282.226562 421.589844 281.578125 422.378906 C 280.933594 423.167969 280.246094 423.921875 279.527344 424.644531 C 278.804688 425.367188 278.050781 426.050781 277.261719 426.699219 C 276.472656 427.347656 275.652344 427.953125 274.804688 428.519531 C 273.957031 429.089844 273.082031 429.613281 272.183594 430.09375 C 271.28125 430.574219 270.363281 431.011719 269.417969 431.402344 C 268.476562 431.792969 267.515625 432.136719 266.539062 432.433594 C 265.5625 432.730469 264.574219 432.980469 263.574219 433.179688 C 262.574219 433.378906 261.566406 433.53125 260.550781 433.632812 C 259.535156 433.734375 258.515625 433.785156 257.496094 433.785156 Z M 218.929688 356.65625 C 218.445312 356.65625 217.964844 356.703125 217.488281 356.796875 C 217.011719 356.890625 216.550781 357.03125 216.101562 357.21875 C 215.652344 357.402344 215.226562 357.632812 214.824219 357.902344 C 214.417969 358.171875 214.046875 358.476562 213.703125 358.820312 C 213.359375 359.164062 213.050781 359.539062 212.78125 359.941406 C 212.511719 360.34375 212.285156 360.769531 212.097656 361.21875 C 211.914062 361.667969 211.773438 362.132812 211.675781 362.609375 C 211.582031 363.082031 211.535156 363.566406 211.535156 364.050781 C 211.535156 364.535156 211.582031 365.015625 211.675781 365.492188 C 211.773438 365.96875 211.914062 366.433594 212.097656 366.878906 C 212.285156 367.328125 212.511719 367.753906 212.78125 368.160156 C 213.050781 368.5625 213.359375 368.9375 213.703125 369.28125 C 214.046875 369.625 214.417969 369.929688 214.824219 370.199219 C 215.226562 370.46875 215.652344 370.695312 216.101562 370.882812 C 216.550781 371.070312 217.011719 371.210938 217.488281 371.304688 C 217.964844 371.398438 218.445312 371.445312 218.929688 371.445312 L 238.210938 371.445312 C 238.992188 371.445312 239.765625 371.523438 240.53125 371.675781 C 241.296875 371.828125 242.039062 372.050781 242.761719 372.351562 C 243.484375 372.648438 244.167969 373.015625 244.816406 373.449219 C 245.464844 373.882812 246.066406 374.375 246.617188 374.929688 C 247.171875 375.480469 247.664062 376.082031 248.097656 376.730469 C 248.53125 377.378906 248.898438 378.0625 249.195312 378.785156 C 249.496094 379.507812 249.71875 380.25 249.871094 381.015625 C 250.023438 381.78125 250.101562 382.554688 250.101562 383.335938 L 250.101562 402.617188 C 250.101562 403.101562 250.152344 403.582031 250.246094 404.054688 C 250.34375 404.53125 250.484375 404.992188 250.667969 405.4375 C 250.855469 405.886719 251.085938 406.3125 251.355469 406.714844 C 251.625 407.117188 251.929688 407.488281 252.273438 407.832031 C 252.617188 408.171875 252.988281 408.480469 253.394531 408.746094 C 253.796875 409.015625 254.222656 409.242188 254.671875 409.429688 C 255.117188 409.613281 255.578125 409.753906 256.054688 409.847656 C 256.53125 409.941406 257.011719 409.988281 257.496094 409.988281 C 257.980469 409.988281 258.460938 409.941406 258.933594 409.847656 C 259.410156 409.753906 259.871094 409.613281 260.320312 409.429688 C 260.769531 409.242188 261.191406 409.015625 261.597656 408.746094 C 262 408.480469 262.375 408.171875 262.714844 407.832031 C 263.058594 407.488281 263.367188 407.117188 263.636719 406.714844 C 263.90625 406.3125 264.132812 405.886719 264.320312 405.4375 C 264.507812 404.992188 264.648438 404.53125 264.742188 404.054688 C 264.839844 403.582031 264.886719 403.101562 264.890625 402.617188 L 264.890625 383.335938 C 264.890625 382.554688 264.964844 381.78125 265.117188 381.015625 C 265.269531 380.25 265.496094 379.507812 265.792969 378.785156 C 266.09375 378.0625 266.457031 377.378906 266.890625 376.730469 C 267.324219 376.082031 267.820312 375.480469 268.371094 374.929688 C 268.921875 374.375 269.523438 373.882812 270.171875 373.449219 C 270.820312 373.015625 271.507812 372.648438 272.226562 372.351562 C 272.949219 372.050781 273.691406 371.828125 274.457031 371.675781 C 275.222656 371.523438 275.996094 371.445312 276.777344 371.445312 L 296.058594 371.445312 C 296.542969 371.445312 297.023438 371.398438 297.5 371.304688 C 297.976562 371.210938 298.441406 371.070312 298.890625 370.882812 C 299.335938 370.695312 299.765625 370.46875 300.167969 370.199219 C 300.570312 369.929688 300.945312 369.625 301.289062 369.28125 C 301.632812 368.9375 301.9375 368.5625 302.207031 368.160156 C 302.476562 367.753906 302.707031 367.328125 302.890625 366.878906 C 303.078125 366.433594 303.21875 365.96875 303.3125 365.492188 C 303.40625 365.015625 303.453125 364.535156 303.453125 364.050781 C 303.453125 363.566406 303.40625 363.082031 303.3125 362.609375 C 303.21875 362.132812 303.078125 361.667969 302.890625 361.21875 C 302.707031 360.769531 302.476562 360.34375 302.207031 359.941406 C 301.9375 359.539062 301.632812 359.164062 301.289062 358.820312 C 300.945312 358.476562 300.570312 358.171875 300.167969 357.902344 C 299.765625 357.632812 299.335938 357.402344 298.890625 357.21875 C 298.441406 357.03125 297.976562 356.890625 297.5 356.796875 C 297.023438 356.703125 296.542969 356.65625 296.058594 356.65625 L 276.777344 356.65625 C 275.996094 356.65625 275.222656 356.578125 274.457031 356.425781 C 273.691406 356.273438 272.949219 356.046875 272.226562 355.75 C 271.507812 355.453125 270.820312 355.085938 270.171875 354.652344 C 269.523438 354.21875 268.921875 353.726562 268.371094 353.171875 C 267.820312 352.621094 267.324219 352.019531 266.890625 351.371094 C 266.457031 350.722656 266.09375 350.035156 265.792969 349.316406 C 265.496094 348.59375 265.269531 347.851562 265.117188 347.085938 C 264.964844 346.320312 264.890625 345.546875 264.890625 344.765625 L 264.890625 325.484375 C 264.886719 325 264.839844 324.519531 264.742188 324.046875 C 264.648438 323.570312 264.507812 323.109375 264.320312 322.660156 C 264.132812 322.214844 263.90625 321.789062 263.636719 321.386719 C 263.367188 320.984375 263.058594 320.613281 262.714844 320.269531 C 262.375 319.925781 262 319.621094 261.597656 319.351562 C 261.191406 319.085938 260.769531 318.855469 260.320312 318.671875 C 259.871094 318.488281 259.410156 318.347656 258.933594 318.253906 C 258.460938 318.160156 257.980469 318.109375 257.496094 318.109375 C 257.011719 318.109375 256.53125 318.160156 256.054688 318.253906 C 255.578125 318.347656 255.117188 318.488281 254.671875 318.671875 C 254.222656 318.855469 253.796875 319.085938 253.394531 319.351562 C 252.988281 319.621094 252.617188 319.925781 252.273438 320.269531 C 251.929688 320.613281 251.625 320.984375 251.355469 321.386719 C 251.085938 321.789062 250.855469 322.214844 250.667969 322.660156 C 250.484375 323.109375 250.34375 323.570312 250.246094 324.046875 C 250.152344 324.519531 250.101562 325 250.101562 325.484375 L 250.101562 344.765625 C 250.101562 345.546875 250.023438 346.320312 249.871094 347.085938 C 249.71875 347.851562 249.496094 348.59375 249.195312 349.316406 C 248.898438 350.035156 248.53125 350.722656 248.097656 351.371094 C 247.664062 352.019531 247.171875 352.621094 246.617188 353.171875 C 246.066406 353.726562 245.464844 354.21875 244.816406 354.652344 C 244.167969 355.085938 243.484375 355.453125 242.761719 355.75 C 242.039062 356.046875 241.296875 356.273438 240.53125 356.425781 C 239.765625 356.578125 238.992188 356.65625 238.210938 356.65625 Z M 218.929688 356.65625 " fill-opacity="1" fill-rule="nonzero"/><path fill="#ffffff" d="M 574.34375 325.484375 C 574.34375 326.117188 574.3125 326.746094 574.253906 327.375 C 574.191406 328.003906 574.097656 328.628906 573.976562 329.246094 C 573.851562 329.867188 573.699219 330.476562 573.515625 331.082031 C 573.332031 331.6875 573.121094 332.28125 572.878906 332.863281 C 572.636719 333.449219 572.367188 334.019531 572.070312 334.574219 C 571.769531 335.132812 571.445312 335.671875 571.09375 336.199219 C 570.746094 336.722656 570.367188 337.230469 569.96875 337.71875 C 569.566406 338.207031 569.144531 338.671875 568.699219 339.121094 C 568.25 339.566406 567.785156 339.988281 567.296875 340.390625 C 566.808594 340.789062 566.300781 341.167969 565.777344 341.515625 C 565.25 341.867188 564.710938 342.191406 564.152344 342.492188 C 563.597656 342.789062 563.027344 343.058594 562.441406 343.300781 C 561.859375 343.539062 561.265625 343.753906 560.660156 343.9375 C 560.054688 344.121094 559.445312 344.273438 558.824219 344.394531 C 558.207031 344.519531 557.582031 344.613281 556.953125 344.675781 C 556.324219 344.734375 555.695312 344.765625 555.0625 344.765625 C 554.433594 344.765625 553.800781 344.734375 553.175781 344.675781 C 552.546875 344.613281 551.921875 344.519531 551.300781 344.398438 C 550.683594 344.273438 550.070312 344.121094 549.464844 343.9375 C 548.863281 343.753906 548.269531 343.539062 547.683594 343.300781 C 547.101562 343.058594 546.53125 342.789062 545.972656 342.492188 C 545.417969 342.191406 544.875 341.867188 544.351562 341.515625 C 543.828125 341.167969 543.320312 340.789062 542.832031 340.390625 C 542.34375 339.988281 541.875 339.566406 541.429688 339.121094 C 540.984375 338.671875 540.558594 338.207031 540.160156 337.71875 C 539.757812 337.230469 539.382812 336.722656 539.03125 336.199219 C 538.679688 335.671875 538.355469 335.132812 538.058594 334.574219 C 537.761719 334.019531 537.492188 333.449219 537.25 332.863281 C 537.007812 332.28125 536.796875 331.6875 536.613281 331.082031 C 536.429688 330.476562 536.277344 329.867188 536.152344 329.246094 C 536.03125 328.628906 535.9375 328.003906 535.875 327.375 C 535.8125 326.746094 535.78125 326.117188 535.78125 325.484375 C 535.78125 324.855469 535.8125 324.222656 535.875 323.59375 C 535.9375 322.96875 536.03125 322.34375 536.152344 321.722656 C 536.277344 321.105469 536.429688 320.492188 536.613281 319.886719 C 536.796875 319.285156 537.007812 318.691406 537.25 318.105469 C 537.492188 317.523438 537.761719 316.953125 538.058594 316.394531 C 538.355469 315.839844 538.679688 315.296875 539.03125 314.773438 C 539.382812 314.25 539.757812 313.742188 540.160156 313.253906 C 540.558594 312.765625 540.984375 312.296875 541.429688 311.851562 C 541.875 311.40625 542.34375 310.980469 542.832031 310.582031 C 543.320312 310.179688 543.828125 309.804688 544.351562 309.453125 C 544.875 309.101562 545.417969 308.777344 545.972656 308.480469 C 546.53125 308.183594 547.101562 307.914062 547.683594 307.671875 C 548.269531 307.429688 548.863281 307.21875 549.464844 307.035156 C 550.070312 306.851562 550.683594 306.699219 551.300781 306.574219 C 551.921875 306.453125 552.546875 306.359375 553.175781 306.296875 C 553.800781 306.234375 554.433594 306.203125 555.0625 306.203125 C 555.695312 306.203125 556.324219 306.234375 556.953125 306.296875 C 557.582031 306.359375 558.207031 306.453125 558.824219 306.574219 C 559.445312 306.699219 560.054688 306.851562 560.660156 307.035156 C 561.265625 307.21875 561.859375 307.429688 562.441406 307.671875 C 563.027344 307.914062 563.597656 308.183594 564.152344 308.480469 C 564.710938 308.777344 565.25 309.101562 565.777344 309.453125 C 566.300781 309.804688 566.808594 310.179688 567.296875 310.582031 C 567.785156 310.980469 568.25 311.40625 568.699219 311.851562 C 569.144531 312.296875 569.566406 312.765625 569.96875 313.253906 C 570.371094 313.742188 570.746094 314.25 571.09375 314.773438 C 571.445312 315.296875 571.769531 315.839844 572.070312 316.394531 C 572.367188 316.953125 572.636719 317.523438 572.878906 318.105469 C 573.121094 318.691406 573.332031 319.285156 573.515625 319.886719 C 573.699219 320.492188 573.851562 321.105469 573.976562 321.722656 C 574.097656 322.34375 574.191406 322.96875 574.253906 323.597656 C 574.3125 324.222656 574.34375 324.855469 574.34375 325.484375 Z M 574.34375 325.484375 " fill-opacity="1" fill-rule="nonzero"/><path fill="#ffffff" d="M 574.34375 398.8125 C 574.34375 399.445312 574.3125 400.074219 574.253906 400.703125 C 574.191406 401.332031 574.097656 401.957031 573.976562 402.574219 C 573.851562 403.195312 573.699219 403.804688 573.515625 404.410156 C 573.332031 405.015625 573.121094 405.609375 572.878906 406.191406 C 572.636719 406.773438 572.367188 407.34375 572.070312 407.902344 C 571.769531 408.460938 571.445312 409 571.09375 409.527344 C 570.746094 410.050781 570.367188 410.558594 569.96875 411.046875 C 569.566406 411.535156 569.144531 412 568.699219 412.449219 C 568.25 412.894531 567.785156 413.316406 567.296875 413.71875 C 566.808594 414.117188 566.300781 414.496094 565.777344 414.84375 C 565.25 415.195312 564.710938 415.519531 564.152344 415.816406 C 563.597656 416.117188 563.027344 416.386719 562.441406 416.628906 C 561.859375 416.867188 561.265625 417.082031 560.660156 417.265625 C 560.054688 417.449219 559.445312 417.601562 558.824219 417.722656 C 558.207031 417.847656 557.582031 417.941406 556.953125 418 C 556.324219 418.0625 555.695312 418.09375 555.0625 418.09375 C 554.433594 418.09375 553.800781 418.0625 553.175781 418 C 552.546875 417.941406 551.921875 417.847656 551.300781 417.722656 C 550.683594 417.601562 550.070312 417.449219 549.464844 417.265625 C 548.863281 417.082031 548.269531 416.867188 547.683594 416.628906 C 547.101562 416.386719 546.53125 416.117188 545.972656 415.816406 C 545.417969 415.519531 544.875 415.195312 544.351562 414.84375 C 543.828125 414.496094 543.320312 414.117188 542.832031 413.71875 C 542.34375 413.316406 541.875 412.894531 541.429688 412.449219 C 540.984375 412 540.558594 411.535156 540.160156 411.046875 C 539.757812 410.558594 539.382812 410.050781 539.03125 409.527344 C 538.679688 409 538.355469 408.460938 538.058594 407.902344 C 537.761719 407.34375 537.492188 406.773438 537.25 406.191406 C 537.007812 405.609375 536.796875 405.015625 536.613281 404.410156 C 536.429688 403.804688 536.277344 403.195312 536.152344 402.574219 C 536.03125 401.957031 535.9375 401.332031 535.875 400.703125 C 535.8125 400.074219 535.78125 399.445312 535.78125 398.8125 C 535.78125 398.183594 535.8125 397.550781 535.875 396.921875 C 535.9375 396.296875 536.03125 395.671875 536.152344 395.050781 C 536.277344 394.433594 536.429688 393.820312 536.613281 393.214844 C 536.796875 392.613281 537.007812 392.019531 537.25 391.433594 C 537.492188 390.851562 537.761719 390.28125 538.058594 389.722656 C 538.355469 389.167969 538.679688 388.625 539.03125 388.101562 C 539.382812 387.574219 539.757812 387.070312 540.160156 386.582031 C 540.558594 386.09375 540.984375 385.625 541.429688 385.179688 C 541.875 384.734375 542.34375 384.308594 542.832031 383.910156 C 543.320312 383.507812 543.828125 383.132812 544.351562 382.78125 C 544.875 382.429688 545.417969 382.105469 545.972656 381.808594 C 546.53125 381.511719 547.101562 381.242188 547.683594 381 C 548.269531 380.757812 548.863281 380.546875 549.464844 380.363281 C 550.070312 380.179688 550.683594 380.027344 551.300781 379.902344 C 551.921875 379.777344 552.546875 379.6875 553.175781 379.625 C 553.800781 379.5625 554.433594 379.53125 555.0625 379.53125 C 555.695312 379.53125 556.324219 379.5625 556.953125 379.625 C 557.582031 379.6875 558.207031 379.777344 558.824219 379.902344 C 559.445312 380.027344 560.054688 380.179688 560.660156 380.363281 C 561.265625 380.546875 561.859375 380.757812 562.441406 381 C 563.027344 381.242188 563.597656 381.511719 564.152344 381.808594 C 564.710938 382.105469 565.25 382.429688 565.777344 382.78125 C 566.300781 383.132812 566.808594 383.507812 567.296875 383.910156 C 567.785156 384.308594 568.25 384.734375 568.699219 385.179688 C 569.144531 385.625 569.566406 386.09375 569.96875 386.582031 C 570.371094 387.070312 570.746094 387.574219 571.09375 388.101562 C 571.445312 388.625 571.769531 389.167969 572.070312 389.722656 C 572.367188 390.28125 572.636719 390.851562 572.878906 391.433594 C 573.121094 392.019531 573.332031 392.613281 573.515625 393.214844 C 573.699219 393.820312 573.851562 394.433594 573.976562 395.050781 C 574.097656 395.671875 574.191406 396.296875 574.253906 396.921875 C 574.3125 397.550781 574.34375 398.183594 574.34375 398.8125 Z M 574.34375 398.8125 " fill-opacity="1" fill-rule="nonzero"/><path fill="#ffffff" d="M 611.011719 362.144531 C 611.011719 362.777344 610.980469 363.40625 610.917969 364.035156 C 610.859375 364.664062 610.765625 365.289062 610.640625 365.90625 C 610.519531 366.527344 610.367188 367.140625 610.183594 367.742188 C 610 368.347656 609.785156 368.941406 609.542969 369.523438 C 609.304688 370.109375 609.035156 370.679688 608.734375 371.234375 C 608.4375 371.792969 608.113281 372.332031 607.761719 372.859375 C 607.410156 373.382812 607.035156 373.890625 606.636719 374.378906 C 606.234375 374.867188 605.8125 375.332031 605.363281 375.78125 C 604.917969 376.226562 604.449219 376.648438 603.964844 377.050781 C 603.476562 377.453125 602.96875 377.828125 602.441406 378.179688 C 601.917969 378.527344 601.378906 378.851562 600.820312 379.152344 C 600.261719 379.449219 599.691406 379.71875 599.109375 379.960938 C 598.527344 380.203125 597.933594 380.414062 597.328125 380.597656 C 596.722656 380.78125 596.113281 380.933594 595.492188 381.058594 C 594.875 381.179688 594.25 381.273438 593.621094 381.335938 C 592.992188 381.398438 592.363281 381.425781 591.730469 381.425781 C 591.097656 381.425781 590.46875 381.398438 589.839844 381.335938 C 589.210938 381.273438 588.589844 381.179688 587.96875 381.058594 C 587.351562 380.933594 586.738281 380.78125 586.132812 380.597656 C 585.53125 380.414062 584.933594 380.203125 584.351562 379.960938 C 583.769531 379.71875 583.199219 379.449219 582.640625 379.152344 C 582.085938 378.851562 581.542969 378.527344 581.019531 378.179688 C 580.492188 377.828125 579.988281 377.453125 579.5 377.050781 C 579.011719 376.648438 578.542969 376.226562 578.097656 375.78125 C 577.648438 375.332031 577.226562 374.867188 576.824219 374.378906 C 576.425781 373.890625 576.050781 373.382812 575.699219 372.859375 C 575.347656 372.332031 575.023438 371.792969 574.726562 371.234375 C 574.429688 370.679688 574.160156 370.109375 573.917969 369.523438 C 573.675781 368.941406 573.464844 368.347656 573.28125 367.742188 C 573.097656 367.140625 572.941406 366.527344 572.820312 365.90625 C 572.695312 365.289062 572.605469 364.664062 572.542969 364.035156 C 572.480469 363.40625 572.449219 362.777344 572.449219 362.144531 C 572.449219 361.515625 572.480469 360.882812 572.542969 360.257812 C 572.605469 359.628906 572.695312 359.003906 572.820312 358.382812 C 572.941406 357.765625 573.097656 357.152344 573.28125 356.550781 C 573.464844 355.945312 573.675781 355.351562 573.917969 354.765625 C 574.160156 354.183594 574.429688 353.613281 574.726562 353.058594 C 575.023438 352.5 575.347656 351.960938 575.699219 351.433594 C 576.050781 350.910156 576.425781 350.402344 576.828125 349.914062 C 577.226562 349.425781 577.648438 348.957031 578.097656 348.511719 C 578.542969 348.066406 579.011719 347.640625 579.5 347.242188 C 579.988281 346.839844 580.492188 346.464844 581.019531 346.113281 C 581.542969 345.761719 582.085938 345.4375 582.640625 345.140625 C 583.199219 344.84375 583.769531 344.574219 584.351562 344.332031 C 584.933594 344.089844 585.53125 343.878906 586.132812 343.695312 C 586.738281 343.511719 587.351562 343.359375 587.96875 343.234375 C 588.589844 343.113281 589.210938 343.019531 589.839844 342.957031 C 590.46875 342.894531 591.097656 342.863281 591.730469 342.863281 C 592.363281 342.863281 592.992188 342.894531 593.621094 342.957031 C 594.25 343.019531 594.875 343.113281 595.492188 343.234375 C 596.113281 343.359375 596.722656 343.511719 597.328125 343.695312 C 597.933594 343.878906 598.527344 344.089844 599.109375 344.332031 C 599.691406 344.574219 600.261719 344.84375 600.820312 345.140625 C 601.378906 345.4375 601.917969 345.761719 602.441406 346.113281 C 602.96875 346.464844 603.476562 346.839844 603.964844 347.242188 C 604.449219 347.640625 604.917969 348.066406 605.363281 348.511719 C 605.8125 348.957031 606.234375 349.425781 606.636719 349.914062 C 607.035156 350.402344 607.410156 350.910156 607.761719 351.433594 C 608.113281 351.960938 608.4375 352.5 608.734375 353.058594 C 609.035156 353.613281 609.304688 354.183594 609.542969 354.765625 C 609.785156 355.351562 610 355.945312 610.183594 356.550781 C 610.367188 357.152344 610.519531 357.765625 610.640625 358.382812 C 610.765625 359.003906 610.859375 359.628906 610.917969 360.257812 C 610.980469 360.882812 611.011719 361.515625 611.011719 362.144531 Z M 611.011719 362.144531 " fill-opacity="1" fill-rule="nonzero"/><path fill="#ffffff" d="M 537.683594 362.144531 C 537.683594 362.777344 537.652344 363.40625 537.59375 364.035156 C 537.53125 364.664062 537.4375 365.289062 537.3125 365.90625 C 537.191406 366.527344 537.039062 367.140625 536.855469 367.742188 C 536.671875 368.347656 536.457031 368.941406 536.21875 369.523438 C 535.976562 370.109375 535.707031 370.679688 535.40625 371.234375 C 535.109375 371.792969 534.785156 372.332031 534.433594 372.859375 C 534.085938 373.382812 533.707031 373.890625 533.308594 374.378906 C 532.90625 374.867188 532.484375 375.332031 532.039062 375.78125 C 531.589844 376.226562 531.125 376.648438 530.636719 377.050781 C 530.148438 377.453125 529.640625 377.828125 529.117188 378.179688 C 528.589844 378.527344 528.050781 378.851562 527.492188 379.152344 C 526.933594 379.449219 526.367188 379.71875 525.78125 379.960938 C 525.199219 380.203125 524.605469 380.414062 524 380.597656 C 523.394531 380.78125 522.785156 380.933594 522.164062 381.058594 C 521.546875 381.179688 520.921875 381.273438 520.292969 381.335938 C 519.664062 381.398438 519.035156 381.425781 518.402344 381.425781 C 517.773438 381.425781 517.140625 381.398438 516.511719 381.335938 C 515.886719 381.273438 515.261719 381.179688 514.640625 381.058594 C 514.023438 380.933594 513.410156 380.78125 512.804688 380.597656 C 512.203125 380.414062 511.609375 380.203125 511.023438 379.960938 C 510.441406 379.71875 509.871094 379.449219 509.3125 379.152344 C 508.757812 378.851562 508.214844 378.527344 507.691406 378.179688 C 507.164062 377.828125 506.660156 377.453125 506.171875 377.050781 C 505.683594 376.648438 505.214844 376.226562 504.769531 375.78125 C 504.324219 375.332031 503.898438 374.867188 503.5 374.378906 C 503.097656 373.890625 502.722656 373.382812 502.371094 372.859375 C 502.019531 372.332031 501.695312 371.792969 501.398438 371.234375 C 501.101562 370.679688 500.832031 370.109375 500.589844 369.523438 C 500.347656 368.941406 500.136719 368.347656 499.953125 367.742188 C 499.769531 367.140625 499.617188 366.527344 499.492188 365.90625 C 499.367188 365.289062 499.277344 364.664062 499.214844 364.035156 C 499.152344 363.40625 499.121094 362.777344 499.121094 362.144531 C 499.121094 361.515625 499.152344 360.882812 499.214844 360.257812 C 499.277344 359.628906 499.367188 359.003906 499.492188 358.382812 C 499.617188 357.765625 499.769531 357.152344 499.953125 356.550781 C 500.136719 355.945312 500.347656 355.351562 500.589844 354.765625 C 500.832031 354.183594 501.101562 353.613281 501.398438 353.058594 C 501.695312 352.5 502.019531 351.960938 502.371094 351.433594 C 502.722656 350.910156 503.097656 350.402344 503.5 349.914062 C 503.898438 349.425781 504.324219 348.957031 504.769531 348.511719 C 505.214844 348.066406 505.683594 347.640625 506.171875 347.242188 C 506.660156 346.839844 507.164062 346.464844 507.691406 346.113281 C 508.214844 345.761719 508.757812 345.4375 509.3125 345.140625 C 509.871094 344.84375 510.441406 344.574219 511.023438 344.332031 C 511.609375 344.089844 512.203125 343.878906 512.804688 343.695312 C 513.410156 343.511719 514.023438 343.359375 514.640625 343.234375 C 515.261719 343.113281 515.886719 343.019531 516.511719 342.957031 C 517.140625 342.894531 517.773438 342.863281 518.402344 342.863281 C 519.035156 342.863281 519.664062 342.894531 520.292969 342.957031 C 520.921875 343.019531 521.546875 343.113281 522.164062 343.234375 C 522.785156 343.359375 523.394531 343.511719 524 343.695312 C 524.605469 343.878906 525.199219 344.089844 525.78125 344.332031 C 526.367188 344.574219 526.933594 344.84375 527.492188 345.140625 C 528.050781 345.4375 528.589844 345.761719 529.117188 346.113281 C 529.640625 346.464844 530.148438 346.839844 530.636719 347.242188 C 531.125 347.640625 531.589844 348.066406 532.039062 348.511719 C 532.484375 348.957031 532.90625 349.425781 533.308594 349.914062 C 533.707031 350.402344 534.085938 350.910156 534.433594 351.433594 C 534.785156 351.960938 535.109375 352.5 535.40625 353.058594 C 535.707031 353.613281 535.976562 354.183594 536.21875 354.765625 C 536.457031 355.351562 536.671875 355.945312 536.855469 356.550781 C 537.039062 357.152344 537.191406 357.765625 537.3125 358.382812 C 537.4375 359.003906 537.53125 359.628906 537.59375 360.257812 C 537.652344 360.882812 537.683594 361.515625 537.683594 362.144531 Z M 537.683594 362.144531 " fill-opacity="1" fill-rule="nonzero"/><path fill="#ffffff" d="M 476.164062 221.738281 L 334.496094 221.738281 C 333.714844 221.738281 332.941406 221.664062 332.171875 221.515625 C 331.40625 221.363281 330.660156 221.136719 329.9375 220.839844 C 329.214844 220.542969 328.53125 220.175781 327.878906 219.742188 C 327.230469 219.308594 326.625 218.816406 326.074219 218.265625 C 325.519531 217.710938 325.027344 217.113281 324.59375 216.460938 C 324.15625 215.8125 323.789062 215.125 323.492188 214.40625 C 323.191406 213.683594 322.964844 212.9375 322.8125 212.171875 C 322.660156 211.40625 322.582031 210.632812 322.582031 209.851562 C 322.582031 209.066406 322.660156 208.292969 322.8125 207.527344 C 322.964844 206.761719 323.191406 206.015625 323.492188 205.296875 C 323.789062 204.574219 324.15625 203.886719 324.59375 203.238281 C 325.027344 202.589844 325.519531 201.988281 326.074219 201.433594 C 326.625 200.882812 327.230469 200.390625 327.878906 199.957031 C 328.53125 199.523438 329.214844 199.15625 329.9375 198.859375 C 330.660156 198.5625 331.40625 198.335938 332.171875 198.1875 C 332.941406 198.035156 333.714844 197.960938 334.496094 197.960938 L 476.164062 197.960938 C 476.945312 197.960938 477.722656 198.035156 478.488281 198.1875 C 479.253906 198.335938 480 198.5625 480.722656 198.859375 C 481.445312 199.15625 482.132812 199.523438 482.78125 199.957031 C 483.433594 200.390625 484.035156 200.882812 484.585938 201.433594 C 485.140625 201.988281 485.632812 202.589844 486.070312 203.238281 C 486.503906 203.886719 486.871094 204.574219 487.171875 205.296875 C 487.46875 206.015625 487.695312 206.761719 487.847656 207.527344 C 488 208.292969 488.078125 209.066406 488.078125 209.851562 C 488.078125 210.632812 488 211.40625 487.847656 212.171875 C 487.695312 212.9375 487.46875 213.683594 487.171875 214.40625 C 486.871094 215.125 486.503906 215.8125 486.070312 216.460938 C 485.632812 217.113281 485.140625 217.710938 484.585938 218.265625 C 484.035156 218.816406 483.433594 219.308594 482.78125 219.742188 C 482.132812 220.175781 481.445312 220.542969 480.722656 220.839844 C 480 221.136719 479.253906 221.363281 478.488281 221.515625 C 477.722656 221.664062 476.945312 221.738281 476.164062 221.738281 Z M 476.164062 221.738281 " fill-opacity="1" fill-rule="nonzero"/><path fill="#ffffff" d="M 476.164062 514.179688 L 334.496094 514.179688 C 333.714844 514.183594 332.941406 514.105469 332.171875 513.957031 C 331.40625 513.804688 330.660156 513.582031 329.9375 513.28125 C 329.214844 512.984375 328.53125 512.617188 327.878906 512.183594 C 327.230469 511.75 326.625 511.257812 326.074219 510.707031 C 325.519531 510.15625 325.027344 509.554688 324.59375 508.902344 C 324.15625 508.253906 323.789062 507.570312 323.492188 506.847656 C 323.191406 506.125 322.964844 505.378906 322.8125 504.613281 C 322.660156 503.847656 322.582031 503.074219 322.582031 502.292969 C 322.582031 501.511719 322.660156 500.734375 322.8125 499.96875 C 322.964844 499.203125 323.191406 498.457031 323.492188 497.738281 C 323.789062 497.015625 324.15625 496.328125 324.59375 495.679688 C 325.027344 495.03125 325.519531 494.429688 326.074219 493.878906 C 326.625 493.324219 327.230469 492.832031 327.878906 492.398438 C 328.53125 491.964844 329.214844 491.597656 329.9375 491.300781 C 330.660156 491.003906 331.40625 490.777344 332.171875 490.628906 C 332.941406 490.476562 333.714844 490.402344 334.496094 490.402344 L 476.164062 490.402344 C 476.945312 490.402344 477.722656 490.476562 478.488281 490.628906 C 479.253906 490.777344 480 491.003906 480.722656 491.300781 C 481.445312 491.601562 482.132812 491.964844 482.78125 492.398438 C 483.433594 492.832031 484.035156 493.324219 484.585938 493.878906 C 485.140625 494.429688 485.632812 495.03125 486.070312 495.679688 C 486.503906 496.328125 486.871094 497.015625 487.171875 497.738281 C 487.46875 498.457031 487.695312 499.203125 487.847656 499.96875 C 488 500.734375 488.078125 501.511719 488.078125 502.292969 C 488.078125 503.074219 488 503.847656 487.847656 504.613281 C 487.695312 505.378906 487.46875 506.125 487.171875 506.847656 C 486.871094 507.570312 486.503906 508.253906 486.070312 508.902344 C 485.632812 509.554688 485.140625 510.15625 484.585938 510.707031 C 484.035156 511.257812 483.433594 511.75 482.78125 512.183594 C 482.132812 512.617188 481.445312 512.984375 480.722656 513.28125 C 480 513.582031 479.253906 513.804688 478.488281 513.957031 C 477.722656 514.105469 476.945312 514.183594 476.164062 514.179688 Z M 476.164062 514.179688 " fill-opacity="1" fill-rule="nonzero"/><g fill="#ffffff" fill-opacity="1"><g transform="translate(267.643266, 658.804787)"><g><path d="M 88.015625 0 L 71.25 -58.796875 L 54.484375 0 L 27.9375 0 L -1.90625 -104.78125 L 24.640625 -104.78125 L 42.546875 -32.890625 L 43.1875 -32.890625 L 62.234375 -104.78125 L 80.265625 -104.78125 L 99.3125 -32.890625 L 99.953125 -32.890625 L 117.859375 -104.78125 L 144.265625 -104.78125 L 114.421875 0 Z M 88.015625 0 "/></g></g></g><g fill="#ffffff" fill-opacity="1"><g transform="translate(410.005957, 658.804787)"><g><path d="M 67.5625 -104.78125 L 67.5625 -83.8125 L 31.5 -83.8125 L 31.5 -62.984375 L 66.046875 -62.984375 L 66.046875 -42.03125 L 31.5 -42.03125 L 31.5 -20.953125 L 67.5625 -20.953125 L 67.5625 0 L 7.625 0 L 7.625 -104.78125 Z M 67.5625 -104.78125 "/></g></g></g><g fill="#ffffff" fill-opacity="1"><g transform="translate(483.663721, 658.804787)"><g><path d="M 7.625 -104.78125 L 40.125 -104.78125 C 49.945312 -104.78125 57.78125 -102.679688 63.625 -98.484375 C 69.46875 -94.296875 72.390625 -87.503906 72.390625 -78.109375 C 72.390625 -67.609375 68.03125 -60.113281 59.3125 -55.625 C 74.207031 -53 81.65625 -44.191406 81.65625 -29.203125 C 81.65625 -20.398438 78.609375 -13.332031 72.515625 -8 C 66.421875 -2.664062 58.039062 0 47.375 0 L 7.625 0 Z M 31.5 -63.75 L 33.40625 -63.75 C 38.738281 -63.75 42.71875 -64.679688 45.34375 -66.546875 C 47.96875 -68.410156 49.28125 -71.457031 49.28125 -75.6875 C 49.28125 -82.800781 43.988281 -86.359375 33.40625 -86.359375 L 31.5 -86.359375 Z M 31.5 -18.421875 L 38.984375 -18.421875 C 50.671875 -18.421875 56.515625 -22.3125 56.515625 -30.09375 C 56.515625 -34.75 55.050781 -38.09375 52.125 -40.125 C 49.207031 -42.164062 44.828125 -43.1875 38.984375 -43.1875 L 31.5 -43.1875 Z M 31.5 -18.421875 "/></g></g></g></svg>